<svg width="20" height="20" viewBox="0 0 20 20" fill="none" xmlns="http://www.w3.org/2000/svg">
<g clip-path="url(#clip0_824_1450)">
<path d="M11.7284 3.2379C12.3494 2.56509 12.6599 2.22868 12.9898 2.03246C13.7859 1.55899 14.7662 1.54426 15.5756 1.99362C15.9111 2.17985 16.2311 2.50679 16.8712 3.16066C17.5113 3.81452 17.8313 4.14146 18.0136 4.48413C18.4535 5.31095 18.4391 6.31235 17.9756 7.12561C17.7835 7.46265 17.4542 7.77983 16.7956 8.4142L8.95918 15.9619C7.71106 17.1641 7.08699 17.7652 6.30704 18.0698C5.52709 18.3744 4.66966 18.352 2.9548 18.3072L2.72147 18.3011C2.19941 18.2874 1.93838 18.2806 1.78665 18.1084C1.63491 17.9362 1.65563 17.6703 1.69706 17.1385L1.71956 16.8497C1.83617 15.353 1.89447 14.6046 2.18675 13.9319C2.47903 13.2591 2.98319 12.7129 3.99151 11.6204L11.7284 3.2379Z" stroke="#EF59A1" stroke-width="1.5" stroke-linejoin="round"/>
<path d="M10.834 3.33337L16.6673 9.16671" stroke="#EF59A1" stroke-width="1.5" stroke-linejoin="round"/>
<path d="M11.667 18.3334L18.3337 18.3334" stroke="#EF59A1" stroke-width="1.5" stroke-linecap="round" stroke-linejoin="round"/>
</g>
<defs>
<clipPath id="clip0_824_1450">
<rect width="20" height="20" fill="white"/>
</clipPath>
</defs>
</svg>
