<svg width="26" height="26" viewBox="0 0 26 26" fill="none" xmlns="http://www.w3.org/2000/svg">
<path d="M25.8119 4.48474C25.699 4.24323 25.5377 4.04775 25.3461 3.9199C25.1544 3.79205 24.9398 3.73681 24.7259 3.76028H7.41952L6.55072 1.35692C6.49123 1.17912 6.41847 1.00962 6.33353 0.850951C6.26484 0.732164 6.18614 0.624138 6.09895 0.52897L5.90782 0.310482C5.83332 0.247859 5.75483 0.19399 5.67324 0.149492H5.61242L5.36916 0.068996L5.21278 0H1.65071C1.21292 1.72694e-08 0.793051 0.230191 0.483483 0.639935C0.173914 1.04968 0 1.60541 0 2.18487C0 2.76434 0.173914 3.32007 0.483483 3.72981C0.793051 4.13956 1.21292 4.36975 1.65071 4.36975H3.98778L4.93476 7.07209C5.07945 7.65012 5.26564 8.20847 5.49079 8.7395L7.81917 15.6391L7.89736 15.8116L8.33176 17.0305C8.41248 17.3822 8.55794 17.7019 8.75507 17.9608C8.95221 18.2198 9.19484 18.4098 9.46119 18.5139V18.6059H21.3116V18.5139C21.5766 18.41 21.8182 18.2213 22.0152 17.9647C22.2121 17.708 22.3584 17.3911 22.441 17.042L25.2733 8.7395C25.4557 8.25652 26.394 5.76117 25.8119 4.48474ZM24.4219 8.19903L21.7199 16.0991H21.6504L21.5288 16.697C21.4845 16.9033 21.3895 17.0842 21.259 17.2112C21.1284 17.3382 20.9696 17.4041 20.8077 17.3985H20.2603H9.92165C9.76262 17.3977 9.60823 17.3274 9.48253 17.1985C9.35683 17.0695 9.26685 16.8892 9.22662 16.6855L9.02679 16.1221L6.32484 8.15303C6.12125 7.66755 5.94975 7.15969 5.81225 6.63512L4.58724 3.11632H1.65071C1.46177 3.11632 1.28056 3.01697 1.14696 2.84014C1.01336 2.6633 0.9383 2.42346 0.9383 2.17337C0.9383 1.92329 1.01336 1.68345 1.14696 1.50661C1.28056 1.32977 1.46177 1.23043 1.65071 1.23043H5.1259C5.16907 1.22139 5.21305 1.22139 5.25622 1.23043C5.30063 1.24547 5.34211 1.27292 5.37785 1.31092L5.49079 1.41442L5.58636 1.55241C5.62186 1.62632 5.65378 1.70314 5.68193 1.7824L6.82005 5.00221H24.7259C24.9518 5.00221 24.9953 5.09421 25.004 5.1287C25.1951 5.57718 24.8736 7.06059 24.4219 8.19903ZM11.7288 19.8824C11.2717 19.8824 10.8249 20.0617 10.4448 20.3979C10.0648 20.734 9.76858 21.2117 9.59367 21.7706C9.41875 22.3295 9.37299 22.9446 9.46216 23.5379C9.55133 24.1313 9.77143 24.6763 10.0946 25.1041C10.4178 25.5319 10.8296 25.8232 11.2779 25.9412C11.7262 26.0592 12.1909 25.9987 12.6131 25.7672C13.0354 25.5356 13.3963 25.1436 13.6503 24.6406C13.9042 24.1375 14.0397 23.5462 14.0397 22.9412C14.0375 22.1309 13.7932 21.3546 13.3603 20.7816C12.9274 20.2086 12.341 19.8854 11.7288 19.8824ZM11.7288 24.8961C11.4366 24.8961 11.1511 24.7814 10.9082 24.5666C10.6653 24.3518 10.476 24.0465 10.3642 23.6893C10.2524 23.3321 10.2232 22.939 10.2802 22.5598C10.3372 22.1806 10.4778 21.8323 10.6844 21.5589C10.8909 21.2855 11.1541 21.0993 11.4406 21.0239C11.7271 20.9484 12.0241 20.9871 12.294 21.1351C12.5638 21.2831 12.7945 21.5336 12.9568 21.8551C13.1191 22.1766 13.2057 22.5545 13.2057 22.9412C13.2057 23.4596 13.0501 23.9569 12.7731 24.3235C12.4961 24.6901 12.1205 24.8961 11.7288 24.8961ZM19.7391 19.8824C19.282 19.8824 18.8352 20.0617 18.4551 20.3979C18.0751 20.734 17.7789 21.2117 17.604 21.7706C17.4291 22.3295 17.3833 22.9446 17.4725 23.5379C17.5616 24.1313 17.7817 24.6763 18.1049 25.1041C18.4281 25.5319 18.8399 25.8232 19.2882 25.9412C19.7365 26.0592 20.2012 25.9987 20.6234 25.7672C21.0457 25.5356 21.4066 25.1436 21.6606 24.6406C21.9145 24.1375 22.0501 23.5462 22.0501 22.9412C22.0501 22.1299 21.8066 21.3519 21.3732 20.7783C20.9398 20.2046 20.352 19.8824 19.7391 19.8824ZM19.7391 24.8961C19.4469 24.8961 19.1614 24.7814 18.9185 24.5666C18.6756 24.3518 18.4863 24.0465 18.3745 23.6893C18.2627 23.3321 18.2335 22.939 18.2905 22.5598C18.3475 22.1806 18.4881 21.8323 18.6947 21.5589C18.9012 21.2855 19.1644 21.0993 19.4509 21.0239C19.7374 20.9484 20.0344 20.9871 20.3043 21.1351C20.5741 21.2831 20.8048 21.5336 20.9671 21.8551C21.1294 22.1766 21.216 22.5545 21.216 22.9412C21.216 23.4596 21.0604 23.9569 20.7834 24.3235C20.5064 24.6901 20.1308 24.8961 19.7391 24.8961Z" fill="black"/>
</svg>
