<svg width="30" height="30" viewBox="0 0 30 30" fill="none" xmlns="http://www.w3.org/2000/svg">
<path opacity="0.882" fill-rule="evenodd" clip-rule="evenodd" d="M7.85159 3.86718C10.509 3.82816 13.1652 3.86721 15.8203 3.98437C16.9628 3.98843 17.7831 4.49625 18.2813 5.50781C18.576 6.97706 18.6931 8.46142 18.6328 9.96093C19.961 9.92259 20.0391 9.84447 18.8672 9.72656C18.8672 9.02343 18.8672 8.32031 18.8672 7.61718C21.5852 8.1404 24.2414 8.8826 26.836 9.84375C27.8131 10.626 28.2818 11.6416 28.2422 12.8906C27.7083 15.6906 27.0443 18.4641 26.25 21.2109C25.5605 23.4659 24.076 24.3253 21.7969 23.7891C21.1389 24.8808 20.1624 25.4667 18.8672 25.5469C14.2578 25.7032 9.64847 25.7032 5.03909 25.5469C2.78147 25.2424 1.57053 23.9534 1.40627 21.6797C1.19455 18.5435 1.27268 15.4185 1.64065 12.3047C2.30018 10.6664 3.51112 9.88521 5.27346 9.96093C5.18501 8.37728 5.30219 6.81478 5.62502 5.27343C6.22289 4.52791 6.96509 4.05916 7.85159 3.86718ZM8.08596 9.02343C9.3158 9.0562 9.55017 9.564 8.78909 10.5469C7.58962 10.5057 7.35525 9.99787 8.08596 9.02343ZM11.3672 9.02343C12.66 9.0172 12.9725 9.525 12.3047 10.5469C11.2012 10.5661 10.8887 10.0583 11.3672 9.02343ZM14.8828 9.02343C15.994 8.94407 16.3065 9.41282 15.8203 10.4297C15.061 10.8259 14.5922 10.5916 14.4141 9.72656C14.5764 9.48801 14.7326 9.25364 14.8828 9.02343ZM4.10159 10.6641C4.49222 10.6641 4.88283 10.6641 5.27346 10.6641C5.31225 11.6048 5.27318 12.5423 5.15627 13.4766C4.84856 13.2251 4.497 13.0689 4.10159 13.0078C3.76603 13.0625 3.64884 13.2187 3.75002 13.4766C5.37384 14.4645 7.05354 15.3629 8.78909 16.1719C7.02401 17.0927 5.30524 18.0693 3.63284 19.1016C3.91948 19.3626 4.23197 19.4017 4.57034 19.2187C6.09173 18.4972 7.5761 17.716 9.02346 16.875C10.0068 16.8559 10.9833 16.9731 11.9531 17.2266C12.7067 17.1261 13.4489 16.9698 14.1797 16.7578C15.8845 17.4539 17.5251 18.2743 19.1016 19.2187C19.4047 19.3336 19.7172 19.3727 20.0391 19.3359C20.0904 19.0605 20.0123 18.8262 19.8047 18.6328C18.2052 17.8722 16.6427 17.0519 15.1172 16.1719C16.7089 15.3988 18.2715 14.5785 19.8047 13.7109C20.0123 13.5176 20.0904 13.2832 20.0391 13.0078C19.551 13.0012 19.1213 13.1575 18.75 13.4766C18.6331 12.5423 18.594 11.6048 18.6328 10.6641C20.0837 10.7061 21.0602 11.4092 21.5625 12.7734C21.7188 16.0547 21.7188 19.3359 21.5625 22.6172C21.0844 23.8772 20.186 24.6194 18.8672 24.8437C14.2578 25.0001 9.64847 25.0001 5.03909 24.8437C3.25144 24.5405 2.27486 23.4858 2.1094 21.6797C1.95315 19.0234 1.95315 16.3672 2.1094 13.7109C2.26124 12.3503 2.9253 11.3347 4.10159 10.6641Z" fill="black"/>
</svg>
