<svg width="22" height="22" viewBox="0 0 22 22" fill="none" xmlns="http://www.w3.org/2000/svg">
<path d="M20.75 19.125C20.75 18.2275 20.0225 17.5 19.125 17.5C18.2275 17.5 17.5 18.2275 17.5 19.125C17.5 20.0225 18.2275 20.75 19.125 20.75C20.0225 20.75 20.75 20.0225 20.75 19.125Z" stroke="#141B34" stroke-width="1.5"/>
<path d="M12.625 19.125C12.625 18.2275 11.8975 17.5 11 17.5C10.1025 17.5 9.375 18.2275 9.375 19.125C9.375 20.0225 10.1025 20.75 11 20.75C11.8975 20.75 12.625 20.0225 12.625 19.125Z" stroke="#141B34" stroke-width="1.5"/>
<path d="M4.5 19.125C4.5 18.2275 3.77246 17.5 2.875 17.5C1.97754 17.5 1.25 18.2275 1.25 19.125C1.25 20.0225 1.97754 20.75 2.875 20.75C3.77246 20.75 4.5 20.0225 4.5 19.125Z" stroke="#141B34" stroke-width="1.5"/>
<path d="M20.75 11C20.75 10.1025 20.0225 9.375 19.125 9.375C18.2275 9.375 17.5 10.1025 17.5 11C17.5 11.8975 18.2275 12.625 19.125 12.625C20.0225 12.625 20.75 11.8975 20.75 11Z" stroke="#141B34" stroke-width="1.5"/>
<path d="M20.75 2.875C20.75 1.97754 20.0225 1.25 19.125 1.25C18.2275 1.25 17.5 1.97754 17.5 2.875C17.5 3.77246 18.2275 4.5 19.125 4.5C20.0225 4.5 20.75 3.77246 20.75 2.875Z" stroke="#141B34" stroke-width="1.5"/>
<path d="M12.625 11C12.625 10.1025 11.8975 9.375 11 9.375C10.1025 9.375 9.375 10.1025 9.375 11C9.375 11.8975 10.1025 12.625 11 12.625C11.8975 12.625 12.625 11.8975 12.625 11Z" stroke="#141B34" stroke-width="1.5"/>
<path d="M12.625 2.875C12.625 1.97754 11.8975 1.25 11 1.25C10.1025 1.25 9.375 1.97754 9.375 2.875C9.375 3.77246 10.1025 4.5 11 4.5C11.8975 4.5 12.625 3.77246 12.625 2.875Z" stroke="#141B34" stroke-width="1.5"/>
<path d="M4.5 11C4.5 10.1025 3.77246 9.375 2.875 9.375C1.97754 9.375 1.25 10.1025 1.25 11C1.25 11.8975 1.97754 12.625 2.875 12.625C3.77246 12.625 4.5 11.8975 4.5 11Z" stroke="#141B34" stroke-width="1.5"/>
<path d="M4.5 2.875C4.5 1.97754 3.77246 1.25 2.875 1.25C1.97754 1.25 1.25 1.97754 1.25 2.875C1.25 3.77246 1.97754 4.5 2.875 4.5C3.77246 4.5 4.5 3.77246 4.5 2.875Z" stroke="#141B34" stroke-width="1.5"/>
</svg>
