<svg width="28" height="28" viewBox="0 0 28 28" fill="none" xmlns="http://www.w3.org/2000/svg">
<path d="M14.65 2.3H13.35C7.52816 2.3 4.61723 2.3 2.80862 4.10862C1 5.91723 1 8.82816 1 14.65C1 20.4718 1 23.3828 2.80862 25.1914C4.61723 27 7.52816 27 13.35 27C19.1719 27 22.0828 27 23.8914 25.1914C25.7 23.3828 25.7 20.4718 25.7 14.65V13.35" stroke="#141B34" stroke-width="1.5" stroke-linecap="round"/>
<path d="M27 5.55C27 8.0629 24.9629 10.1 22.45 10.1C19.9371 10.1 17.9 8.0629 17.9 5.55C17.9 3.0371 19.9371 1 22.45 1C24.9629 1 27 3.0371 27 5.55Z" stroke="#141B34" stroke-width="1.5"/>
<path d="M7.5 12.7H12.7" stroke="#141B34" stroke-width="1.5" stroke-linecap="round" stroke-linejoin="round"/>
<path d="M7.5 19.2H17.9" stroke="#141B34" stroke-width="1.5" stroke-linecap="round" stroke-linejoin="round"/>
</svg>
