<svg width="26" height="27" viewBox="0 0 26 27" fill="none" xmlns="http://www.w3.org/2000/svg">
<path d="M3.44527 1.26593C2.95309 1.74904 2.88889 1.95034 2.88889 3.27889V4.74834L1.45515 4.80873L0 4.86912V15.6384V26.4077L7.87491 26.4681C15.6214 26.5084 15.7284 26.5084 15.7284 26.1058C15.7284 25.7032 15.6 25.7032 8.23869 25.7032H0.748972V15.6384V5.57365H1.81893H2.88889V6.88207C2.88889 7.88855 2.82469 8.19049 2.5893 8.19049C2.13992 8.19049 1.60494 8.97555 1.60494 9.61969C1.60494 10.3041 2.5679 11.2099 3.29548 11.2099C3.98025 11.2099 4.75062 10.5859 4.94322 9.88138C5.11441 9.23723 4.70782 8.39179 4.17284 8.25088C3.80906 8.15023 3.74486 7.96907 3.74486 6.86194V5.57365H9.73664H15.7284V6.86194C15.7284 7.96907 15.6642 8.15023 15.3004 8.25088C14.7654 8.39179 14.3589 9.23723 14.5301 9.88138C14.7226 10.5859 15.493 11.2099 16.1778 11.2099C16.9054 11.2099 17.8683 10.3041 17.8683 9.61969C17.8683 8.97555 17.3334 8.19049 16.884 8.19049C16.6486 8.19049 16.5844 7.88855 16.5844 6.88207V5.57365H17.6543H18.7243V10.2034C18.7243 14.6923 18.7457 14.8332 19.1523 14.8332C19.5589 14.8332 19.5803 14.6923 19.5803 10.2034V5.57365H21.7202H23.8601V10.606C23.8601 15.5176 23.8601 15.6384 24.2881 15.6384C24.7161 15.6384 24.7161 15.5378 24.6733 10.2437L24.6091 4.86912L23.3893 4.80873L22.1482 4.74834V3.27889C22.1482 1.95034 22.084 1.74904 21.5918 1.26593C21.0568 0.782823 20.8856 0.742563 19.0239 0.742563C17.1622 0.742563 17.0124 0.762693 17.0124 1.14515C17.0124 1.50749 17.1622 1.54775 18.8955 1.54775C20.0724 1.54775 20.8642 1.62826 21.0354 1.7893C21.1852 1.93021 21.2922 2.59448 21.2922 3.39966V4.76847H18.9383H16.5844V3.27889C16.5844 1.95034 16.5202 1.74904 16.028 1.26593L15.4502 0.742563H9.73664H4.02305L3.44527 1.26593ZM15.4716 1.7893C15.6214 1.93021 15.7284 2.59448 15.7284 3.39966V4.76847H9.73664H3.74486V3.39966C3.74486 2.59448 3.85186 1.93021 4.00165 1.7893C4.36544 1.4471 15.1078 1.4471 15.4716 1.7893ZM3.95885 9.09632C4.51523 9.74047 3.68066 10.7268 2.95309 10.284C2.20412 9.84112 2.46091 8.79438 3.31688 8.79438C3.53087 8.79438 3.80906 8.93529 3.95885 9.09632ZM16.7984 9.09632C17.3548 9.74047 16.5202 10.7268 15.7926 10.284C15.0436 9.84112 15.3004 8.79438 16.1564 8.79438C16.3704 8.79438 16.6486 8.93529 16.7984 9.09632Z" fill="black"/>
<path d="M18.4247 16.4436C16.3918 17.1884 14.8724 19.2618 14.8724 21.2747C14.8724 23.3078 16.4132 25.3812 18.4675 26.1058C19.8798 26.6091 20.9712 26.6091 22.4264 26.1058C24.4379 25.4013 26 23.3078 26 21.2747C26 19.2416 24.4379 17.1482 22.4264 16.4436C20.9926 15.9404 19.7943 15.9404 18.4247 16.4436ZM22.2552 17.2287C25.3366 18.5572 26.0856 22.1604 23.7317 24.3747C21.3778 26.5889 17.5473 25.8844 16.135 22.9857C14.4231 19.5033 18.5531 15.6183 22.2552 17.2287Z" fill="black"/>
<path d="M17.8683 19.2617C17.8683 19.5234 18.0181 19.6643 18.2963 19.6643C18.5745 19.6643 18.7243 19.5234 18.7243 19.2617C18.7243 19.0001 18.5745 18.8592 18.2963 18.8592C18.0181 18.8592 17.8683 19.0001 17.8683 19.2617Z" fill="black"/>
<path d="M19.5803 19.2617C19.5803 19.6241 19.7301 19.6643 21.2923 19.6643C22.8544 19.6643 23.0042 19.6241 23.0042 19.2617C23.0042 18.8994 22.8544 18.8592 21.2923 18.8592C19.7301 18.8592 19.5803 18.8994 19.5803 19.2617Z" fill="black"/>
<path d="M17.8683 21.2747C17.8683 21.5364 18.0181 21.6773 18.2963 21.6773C18.5745 21.6773 18.7243 21.5364 18.7243 21.2747C18.7243 21.013 18.5745 20.8721 18.2963 20.8721C18.0181 20.8721 17.8683 21.013 17.8683 21.2747Z" fill="black"/>
<path d="M19.5803 21.2747C19.5803 21.637 19.7301 21.6773 21.2923 21.6773C22.8544 21.6773 23.0042 21.637 23.0042 21.2747C23.0042 20.9124 22.8544 20.8721 21.2923 20.8721C19.7301 20.8721 19.5803 20.9124 19.5803 21.2747Z" fill="black"/>
<path d="M17.8683 23.2876C17.8683 23.5493 18.0181 23.6902 18.2963 23.6902C18.5745 23.6902 18.7243 23.5493 18.7243 23.2876C18.7243 23.026 18.5745 22.885 18.2963 22.885C18.0181 22.885 17.8683 23.026 17.8683 23.2876Z" fill="black"/>
<path d="M19.5803 23.2876C19.5803 23.65 19.7301 23.6902 21.2923 23.6902C22.8544 23.6902 23.0042 23.65 23.0042 23.2876C23.0042 22.9253 22.8544 22.885 21.2923 22.885C19.7301 22.885 19.5803 22.9253 19.5803 23.2876Z" fill="black"/>
</svg>
