<svg width="26" height="26" viewBox="0 0 26 26" fill="none" xmlns="http://www.w3.org/2000/svg">
<path d="M23.303 17.8637C23.5959 18.1566 24.0708 18.1566 24.3637 17.8637C24.6566 17.5708 24.6566 17.0959 24.3637 16.803L23.303 17.8637ZM20.4863 15.047L23.303 17.8637L24.3637 16.803L21.547 13.9863L20.4863 15.047ZM23.175 9.5875C23.175 5.67318 20.0018 2.5 16.0875 2.5V4C19.1734 4 21.675 6.50161 21.675 9.5875H23.175ZM16.0875 2.5C12.1732 2.5 9 5.67318 9 9.5875H10.5C10.5 6.50161 13.0016 4 16.0875 4V2.5ZM9 9.5875C9 13.5018 12.1732 16.675 16.0875 16.675V15.175C13.0016 15.175 10.5 12.6734 10.5 9.5875H9ZM16.0875 16.675C20.0018 16.675 23.175 13.5018 23.175 9.5875H21.675C21.675 12.6734 19.1734 15.175 16.0875 15.175V16.675Z" fill="#141B34"/>
<path d="M2.16663 6.5L6.49996 6.50003" stroke="#141B34" stroke-width="1.5" stroke-linecap="round" stroke-linejoin="round"/>
<path d="M2.16663 14.0833H6.49996" stroke="#141B34" stroke-width="1.5" stroke-linecap="round" stroke-linejoin="round"/>
<path d="M2.16663 22.75H22.75" stroke="#141B34" stroke-width="1.5" stroke-linecap="round" stroke-linejoin="round"/>
</svg>
