<svg width="26" height="26" viewBox="0 0 26 26" fill="none" xmlns="http://www.w3.org/2000/svg">
<path d="M7.12571 16.7717C5.59304 17.6843 1.57448 19.5478 4.02205 21.8796C5.21767 23.0187 6.54928 23.8333 8.22344 23.8333H17.7766C19.4507 23.8333 20.7823 23.0187 21.978 21.8796C24.4255 19.5478 20.407 17.6843 18.8743 16.7717C15.2802 14.6317 10.7198 14.6317 7.12571 16.7717Z" stroke="black" stroke-width="1.5" stroke-linecap="round" stroke-linejoin="round"/>
<path d="M17.875 7.04167C17.875 9.73406 15.6924 11.9167 13 11.9167C10.3076 11.9167 8.125 9.73406 8.125 7.04167C8.125 4.34928 10.3076 2.16667 13 2.16667C15.6924 2.16667 17.875 4.34928 17.875 7.04167Z" stroke="black" stroke-width="1.5"/>
</svg>
